<?xml version="1.0" encoding="UTF-8"?>
<svg width="20px" height="13px" viewBox="0 0 20 13" version="1.1" xmlns="http://www.w3.org/2000/svg" xmlns:xlink="http://www.w3.org/1999/xlink">
    <title>ic_behance</title>
    <g id="Page-1" stroke="none" stroke-width="1" fill="none" fill-rule="evenodd">
        <g id="Mark-Mobile-Home" transform="translate(-155.000000, -3601.000000)" fill="#181E32" fill-rule="nonzero">
            <g id="Footer" transform="translate(0.000000, 3500.000000)">
                <g id="Social" transform="translate(110.000000, 100.000000)">
                    <g id="ic_behance" transform="translate(45.000000, 1.000000)">
                        <path d="M7.77365217,5.37251136 C8.82821739,4.86510751 9.40069565,4.11892537 9.40069565,2.92503396 C9.40069565,0.596945706 7.65313043,0 5.60426087,0 L0,0 L0,11.7598304 L5.75491304,11.7598304 C7.92430435,11.7598304 9.94304348,10.7450227 9.94304348,8.35723989 C9.94304348,6.86487562 9.21991304,5.79037335 7.77365217,5.37251136 L7.77365217,5.37251136 Z M2.62134783,2.0296154 L5.06191304,2.0296154 C5.99595652,2.0296154 6.8396087,2.29824097 6.8396087,3.37274324 C6.8396087,4.35770366 6.17673913,4.77556565 5.24269565,4.77556565 L2.62134783,4.77556565 C2.62134783,4.74571836 2.62134783,2.0296154 2.62134783,2.0296154 Z M5.39334783,9.7600623 L2.62134783,9.7600623 L2.62134783,6.53655548 L5.4536087,6.53655548 C6.59856522,6.53655548 7.32169565,7.01411205 7.32169565,8.20800346 C7.32169565,9.40189487 6.44791304,9.7600623 5.39334783,9.7600623 L5.39334783,9.7600623 Z M17.3852609,1.79083712 L12.5643913,1.79083712 L12.5643913,0.626792992 L17.3852609,0.626792992 L17.3852609,1.79083712 L17.3852609,1.79083712 Z M19.2834783,7.64090504 C19.2834783,5.10388579 17.807087,3.01457582 15.0953478,3.01457582 C12.474,3.01457582 10.6963043,4.95464936 10.6963043,7.5215159 C10.6963043,10.1779243 12.3836087,11.9986087 15.0953478,11.9986087 C17.1442174,11.9986087 18.4699565,11.0733429 19.1026957,9.13326931 L17.0236957,9.13326931 C16.8127826,9.84960415 15.8787391,10.2376189 15.1556087,10.2376189 C13.7696087,10.2376189 13.0464783,9.43174216 13.0464783,8.05876703 L19.2533478,8.05876703 C19.2834783,7.93937789 19.2834783,7.79014147 19.2834783,7.64090504 Z M13.0766087,6.59625005 C13.167,5.4919005 13.8901304,4.77556565 15.035087,4.77556565 C16.2101739,4.77556565 16.8127826,5.46205321 16.9031739,6.59625005 L13.0766087,6.59625005 Z" id="Shape"></path>
                    </g>
                </g>
            </g>
        </g>
    </g>
</svg>