<?xml version="1.0" encoding="UTF-8"?>
<svg width="22px" height="22px" viewBox="0 0 22 22" version="1.1" xmlns="http://www.w3.org/2000/svg" xmlns:xlink="http://www.w3.org/1999/xlink">
    <title>ic_close_white</title>
    <g id="Page-1" stroke="none" stroke-width="1" fill="none" fill-rule="evenodd">
        <g id="Group-2" transform="translate(-332.000000, -32.000000)" fill="#FFFFFF">
            <g id="Group" transform="translate(331.000000, 31.000000)">
                <g id="outline" transform="translate(1.000000, 1.000000)">
                    <path d="M21.0606602,0.939339828 C21.6464466,1.52512627 21.6464466,2.47487373 21.0606602,3.06066017 L13.121,11 L21.0606602,18.9393398 C21.609835,19.4885146 21.6441584,20.357577 21.1636304,20.9467378 L21.0606602,21.0606602 C20.4748737,21.6464466 19.5251263,21.6464466 18.9393398,21.0606602 L18.9393398,21.0606602 L11,13.121 L3.06066017,21.0606602 C2.47487373,21.6464466 1.52512627,21.6464466 0.939339828,21.0606602 C0.353553391,20.4748737 0.353553391,19.5251263 0.939339828,18.9393398 L8.879,11 L0.939339828,3.06066017 C0.390165043,2.51148539 0.355841619,1.64242298 0.836369556,1.05326224 L0.939339828,0.939339828 C1.52512627,0.353553391 2.47487373,0.353553391 3.06066017,0.939339828 L3.06066017,0.939339828 L11,8.879 L18.9393398,0.939339828 C19.5251263,0.353553391 20.4748737,0.353553391 21.0606602,0.939339828 Z" id="Combined-Shape"></path>
                </g>
            </g>
        </g>
    </g>
</svg>