<?xml version="1.0" encoding="UTF-8"?>
<svg width="15px" height="15px" viewBox="0 0 15 15" version="1.1" xmlns="http://www.w3.org/2000/svg" xmlns:xlink="http://www.w3.org/1999/xlink">
    <title>ic_in</title>
    <g id="Page-1" stroke="none" stroke-width="1" fill="none" fill-rule="evenodd">
        <g id="Mark-Mobile-Home" transform="translate(-250.000000, -3600.000000)" fill="#181E32" fill-rule="nonzero">
            <g id="Footer" transform="translate(0.000000, 3500.000000)">
                <g id="Social" transform="translate(110.000000, 100.000000)">
                    <g id="ic_in" transform="translate(140.000000, 0.000000)">
                        <path d="M3.32478603,14.784 L0.258235808,14.784 L0.258235808,4.91721663 L3.32478603,4.91721663 L3.32478603,14.784 Z M1.77537118,3.55851204 C0.8069869,3.55851204 0,2.7497593 0,1.77925602 C0,0.808752735 0.8069869,0 1.77537118,0 C2.74375546,0 3.55074236,0.808752735 3.55074236,1.77925602 C3.55074236,2.78210941 2.77603493,3.55851204 1.77537118,3.55851204 Z M14.784,14.784 L11.7174498,14.784 L11.7174498,9.99618381 C11.7174498,8.86392998 11.6851703,7.37582495 10.1357555,7.37582495 C8.55406114,7.37582495 8.29582533,8.63747921 8.29582533,9.89913348 L8.29582533,14.784 L5.22927511,14.784 L5.22927511,4.91721663 L8.16670742,4.91721663 L8.16670742,6.27592123 L8.1989869,6.27592123 C8.61862009,5.4995186 9.61928384,4.69076586 11.1041397,4.69076586 C14.2029694,4.69076586 14.784,6.72882276 14.784,9.41388184 L14.784,14.784 L14.784,14.784 Z" id="Shape"></path>
                    </g>
                </g>
            </g>
        </g>
    </g>
</svg>