<?xml version="1.0" encoding="UTF-8"?>
<svg width="295px" height="136px" viewBox="0 0 295 136" version="1.1" xmlns="http://www.w3.org/2000/svg" xmlns:xlink="http://www.w3.org/1999/xlink">
    <title>ic_mark_web</title>
    <g id="Page-1" stroke="none" stroke-width="1" fill="none" fill-rule="evenodd">
        <g id="Apple-TV" transform="translate(-150.000000, -46.000000)" fill="#1D1D1B" fill-rule="nonzero">
            <g id="ic_mark_web" transform="translate(150.000000, 46.000000)">
                <path d="M65.52,24.156 C69.678,19.692 72.81,17.712 74.88,17.712 C76.95,17.712 78.228,19.908 78.228,23.742 C78.228,29.268 75.942,38.142 71.55,48.708 C62.55,70.182 53.874,87.642 53.874,92.196 C53.874,92.916 54.126,93.312 54.576,93.366 L54.576,93.366 C58.176,93.366 87.39,51.192 87.39,51.192 C87.39,51.192 111.042,4.86 118.674,0.756 C119.42819,0.305723152 120.280837,0.0462219546 121.158,0 C122.688,0 123.642,1.062 123.642,3.348 C123.642,9.27 117,23.4 94.68,48.042 C94.68,48.042 66.276,91.242 66.276,112.842 C66.276,113.4 66.276,113.958 66.276,114.516 C66.276,114.516 66.672,118.62 69.156,118.926 C67.5678482,119.687487 65.8534729,120.151161 64.098,120.294 C62.73,120.294 61.614,119.826 61.416,118.26 C61.2518518,117.157903 61.179603,116.044068 61.2,114.93 C61.2,111.078 62.262,105.426 66.87,94.122 C72.99,79.236 81.648,63.342 81.648,63.342 C81.648,63.342 57.6,98.838 49.41,100.494 C49.2428314,100.517636 49.0731686,100.517636 48.906,100.494 C47.502,100.494 46.89,99.18 46.89,96.894 C46.89,87.768 56.61,63.522 63.234,49.194 C69.57,35.532 71.802,28.836 71.802,26.316 C71.802,25.398 71.55,25.038 71.082,25.038 C69.282,25.038 67.086,27.126 59.544,37.242 C52.002,47.358 2.016,131.4 0.954,134.226 C0.702,134.928 0.504,135.234 0.36,135.234 C0.216,135.234 0,133.614 0,133.2 L0,133.2 C0,133.2 50.742,40.05 65.52,24.156 Z M118.224,6.156 L118.224,6.084 C118.224,5.724 118.026,5.526 117.774,5.526 C116.1,5.526 110.07,13.878 97.362,40.464 C97.362,40.464 118.224,9.414 118.224,6.174 L118.224,6.156 Z" id="Shape"></path>
                <path d="M93.762,89.118 C100.332,85.158 105.354,79.704 107.82,77.616 L108.342,77.814 C108.342,77.814 94.104,92.8080214 89.802,92.8080214 C89.5779345,92.8092005 89.3564685,92.7599859 89.154,92.664 C88.9330743,92.4552839 88.8202596,92.1566566 88.848,91.854 C88.848,89.568 92.448,83.79 95.382,79.542 C95.382,79.344 95.274,79.182 95.22,79.038 L94.014,79.992 C91.476,82.08 87.426,85.158 86.31,85.392 L86.004,85.392 C85.2838459,85.3996515 84.5938818,85.1031313 84.1038245,84.5753773 C83.6137672,84.0476232 83.3690978,83.3376151 83.43,82.62 L83.43,82.512 C83.43,80.226 85.86,74.826 89.352,73.8 C89.827255,73.6705487 90.3174342,73.6039812 90.81,73.602 C91.4447778,73.6023946 92.0673143,73.7767049 92.61,74.106 L92.61,74.106 C93.7945531,75.0891129 94.6438164,76.4164801 95.04,77.904 C96.066,77.148 97.02,76.392 97.884,75.726 C98.442,74.97 98.784,74.466 98.784,74.466 C99.125352,73.768415 99.8097752,73.3030073 100.584,73.242 C101.502,73.242 102.15,74.214 102.15,75.42 L102.15,75.78 C102.15,75.78 95.022,85.716 93.762,89.118 Z M93.096,76.752 C92.2254419,76.7830211 91.4111518,77.1901662 90.864,77.868 C89.6509164,79.0768619 88.807921,80.6067424 88.434,82.278 C88.434,82.476 88.434,82.584 88.596,82.638 L88.596,82.638 C90.8096021,81.3520086 92.895102,79.8571995 94.824,78.174 C94.6084226,77.582514 94.1777901,77.0940353 93.618,76.806 C93.4475723,76.7625958 93.2717037,76.7444025 93.096,76.752 L93.096,76.752 Z M96.282,78.174 L95.4,78.84 C95.4290668,78.9737938 95.4651161,79.1059745 95.508,79.236 C95.7852233,78.8964179 96.0436114,78.5418853 96.282,78.174 Z" id="Shape"></path>
                <path d="M110.466,70.74 C110.632067,70.6324006 110.826131,70.5760595 111.024,70.5779515 C112.259899,70.6965145 113.357737,71.4171812 113.958,72.504 L113.958,72.504 C113.958,73.206 110.628,76.95 110.628,77.166 C110.628,77.382 113.148,74.88 114.984,73.764 C115.711729,73.2990349 116.550933,73.0379494 117.414,73.008 C118.160803,73.0681835 118.894674,73.2380049 119.592,73.512 C120.294,73.764 120.546,74.016 121.104,74.016 C121.414203,74.0003291 121.721897,73.9520634 122.022,73.872 C122.282394,73.777848 122.555424,73.7232419 122.832,73.71 C123.188686,73.6750701 123.541311,73.8081362 123.786,74.07 C123.654875,74.0485055 123.521125,74.0485055 123.39,74.07 C122.860134,74.0792875 122.338415,74.202045 121.86,74.43 C121.621328,74.5319401 121.363434,74.5810627 121.104,74.574 C120.24,74.574 119.304,74.178 118.008,74.178 C117.394024,74.1649293 116.783166,74.2687751 116.208,74.484 C113.634,75.384 107.442,82.98 106.38,83.736 C105.850999,84.101324 105.222883,84.2960399 104.58,84.294 C103.840457,84.378785 103.125018,83.9996018 102.78,83.34 C102.754124,83.1911159 102.754124,83.0388841 102.78,82.89 C102.78,81.27 105.156,77.616 106.38,75.906 C107.451215,73.972731 108.831436,72.2276937 110.466,70.74 Z" id="Path"></path>
                <path d="M139.086,56.502 C139.624715,56.5384048 140.145185,56.711895 140.598,57.006 C141.569514,57.7453308 142.157621,58.8818961 142.2,60.102 L142.2,60.3 C142.111283,60.1953006 141.97645,60.1413672 141.84,60.156 C140.770089,60.3685703 139.804835,60.940102 139.104,61.776 C137.304,63.396 128.304,76.41 128.304,76.41 C129.819663,74.9716899 131.75637,74.056959 133.83,73.8 C134.784,73.8 135.396,74.16 135.396,74.97 L135.396,75.114 C135.198,77.292 128.304,79.83 128.304,80.64 C128.304,81.09 128.754,81.306 129.474,81.306 C130.242017,81.2806512 131.003884,81.15972 131.742,80.946 C134.454378,79.9470433 137.094641,78.7622328 139.644,77.4 L140.004,77.652 C140.004,77.652 131.004,82.908 127.8,82.908 C127.515046,82.9404099 127.227869,82.870211 126.99,82.71 C126.489668,82.3436441 126.189873,81.7640413 126.18,81.144 C126.227609,80.4230922 126.491028,79.7331874 126.936,79.164 C129.618,78.21 130.932,76.68 130.932,75.978 C130.932,75.726 130.932,75.618 130.536,75.618 C130.32626,75.6038324 130.116222,75.640898 129.924,75.726 C127.854,76.482 122.724,84.186 121.158,84.888 C120.936017,84.9825658 120.697286,85.0315361 120.456,85.032 C119.448,85.032 119.034,83.88 118.836,83.232 L118.836,83.232 C118.836,82.278 125.514,72.9 127.296,70.776 C129.078,68.652 129.924,66.474 130.896,65.376 C131.784442,64.7103998 132.562045,63.908497 133.2,63 C133.902,61.83 137.394,57.132 137.394,57.132 C137.884953,56.7623281 138.472832,56.5434373 139.086,56.502 L139.086,56.502 Z" id="Path"></path>
                <path d="M176.274,76.248 C176.277677,74.9229601 176.138879,73.6013651 175.86,72.306 L167.4,73.062 L170.586,70.632 L175.392,70.074 C171,55.998 153.09,49.878 153.09,43.2 C153.09,40.014 157.23,36.774 169.128,32.4 C187.254,25.812 218.052,23.94 244.53,23.94 C268.218,23.94 288.468,25.47 292.878,26.334 C292.878,26.334 294.498,26.73 294.498,28.134 C294.471346,28.4644463 294.386012,28.7874974 294.246,29.088 C293.080031,31.3590626 290.815905,32.8593869 288.27,33.048 C287.112024,33.0489364 285.988285,32.6553103 285.084,31.932 C281.178,28.944 260.064,29.34 224.37,28.494 C222.912,28.494 221.436,28.494 219.96,28.494 C186.192,28.494 158.004,37.692 155.718,41.958 C155.581011,42.2249928 155.512948,42.5219979 155.52,42.822 C155.52,47.826 173.232,57.222 176.58,69.822 L186.048,68.76 C194.508,57.474 202.752,46.944 205.038,43.956 C209.484,38.088 209.79,36.216 209.79,35.802 L209.79,35.712 C209.79,35.712 216.63,37.98 216.63,40.068 C216.654429,40.1685374 216.654429,40.2734626 216.63,40.374 C215.964,42.534 206.046,53.73 195.462,67.752 C208.476,66.294 219.114,64.962 224.676,64.62 L225.18,64.62 C227.52,64.62 228.078,65.79 228.078,66.888 C228.072098,67.5173169 227.911369,68.1355045 227.61,68.688 C227.590886,68.6172685 227.590886,68.5427315 227.61,68.472 C227.632157,68.3894611 227.632157,68.3025389 227.61,68.22 C227.61,67.266 225.81,66.42 222.75,66.42 C221.985951,66.4264598 221.22282,66.474531 220.464,66.564 C215.856,67.068 207.36,68.364 194.094,69.552 C183.06,84.186 169.434,99.072 168.426,101.952 C168.400089,102.052354 168.400089,102.157646 168.426,102.258 C168.426,103.122 170.046,103.68 172.98,103.68 C178.38,103.68 187.92,101.88 199.818,97.29 C211.456732,92.7157736 222.175994,86.0817817 231.462,77.706 L232.128,78.768 C221.4,93.6 192.168,106.2 179.658,108.198 C177.619568,108.558899 175.554107,108.745573 173.484,108.756 C166.392,108.756 164.88,105.66 164.376,101.556 L164.376,101.52 C164.376,98.64 173.988,84.96 183.96,71.586 L177.03,72.198 C177.194346,73.2037363 177.278611,74.22093 177.282,75.24 C177.27155,80.2432951 175.115192,85.0017025 171.36,88.308 C174.565617,85.1206837 176.339159,80.7680353 176.274,76.248 Z" id="Path"></path>
                <path d="M236.754,76.752 C235.548,77.418 232.758,80.802 232.758,82.026 C232.746289,82.1989239 232.848391,82.3593707 233.01,82.422 C233.01,82.422 233.118,82.422 233.154,82.422 C234.774,82.422 241.866,77.472 241.866,77.472 L242.334,77.472 C242.334,77.472 234.936,83.34 232.56,83.448 L232.398,83.448 C231.698034,83.5137555 231.0027,83.2819804 230.482176,82.8094 C229.961653,82.3368196 229.663976,81.6670454 229.662,80.964 C229.763368,79.8314882 230.209397,78.7572503 230.94,77.886 C232.235879,75.7535017 234.438687,74.333619 236.916,74.034 C237.494983,73.9705184 238.072842,74.1628459 238.498302,74.5606334 C238.923762,74.958421 239.154459,75.5220613 239.13,76.104 C239.171605,76.3904974 239.171605,76.6815026 239.13,76.968 C238.980392,77.5879421 238.396648,78.0027078 237.762,77.94 C237.517877,77.9412026 237.275027,77.904775 237.042,77.832 C237.540731,77.6727367 237.899913,77.2360833 237.96,76.716 C237.9491,76.580374 237.918791,76.4470144 237.87,76.32 L237.6,76.32 C237.290269,76.4016286 237.001736,76.5489649 236.754,76.752 Z" id="Path"></path>
                <path d="M248.256,80.658 C246.744,82.458 245.07,84.564 242.856,84.564 L242.352,84.564 C240.870816,84.3420278 239.811263,83.0156249 239.922,81.522 C240.013315,79.9659713 240.557652,78.4706066 241.488,77.22 C244.17,73.116 246.888,72.054 249.192,71.82 L249.336,71.82 C250.956,71.82 251.568,73.188 251.568,74.466 C251.553396,74.8747685 251.486862,75.28002 251.37,75.672 L251.37,75.834 C252.05227,76.1478672 252.797208,76.30178 253.548,76.284 C254.42441,76.2711846 255.293226,76.1192936 256.122,75.834 L256.428,75.834 C255.44004,76.4542246 254.300407,76.7905098 253.134,76.806 C252.407148,76.7941198 251.688106,76.6539675 251.01,76.392 C250.614,76.95 250.254,76.95 250.254,76.95 C249.929075,78.3414885 249.239444,79.6213444 248.256,80.658 Z M248.814,77.724 C248.89173,77.5806636 248.929059,77.4189031 248.922,77.256 C248.922,77.058 248.814,76.95 248.67,76.95 C247.835771,77.1625968 247.087634,77.6278249 246.528,78.282 C245.783375,79.1849061 245.281536,80.2629319 245.07,81.414 C245.07,81.414 248.4,79.092 248.814,77.724 Z" id="Shape"></path>
            </g>
        </g>
    </g>
</svg>