<?xml version="1.0" encoding="UTF-8"?>
<svg width="133px" height="61px" viewBox="0 0 133 61" version="1.1" xmlns="http://www.w3.org/2000/svg" xmlns:xlink="http://www.w3.org/1999/xlink">
    <title>ic_mark_mobile_mark</title>
    <g id="Page-1" stroke="none" stroke-width="1" fill="none" fill-rule="evenodd">
        <g id="Group-2" transform="translate(-27.000000, -12.000000)" fill="#FFFFFF" fill-rule="nonzero">
            <g id="ic_mark_mobile_mark" transform="translate(27.000000, 12.000000)">
                <path d="M29.484,10.8702 C31.3551,8.8614 32.7645,7.9704 33.696,7.9704 C34.6275,7.9704 35.2026,8.9586 35.2026,10.6839 C35.2026,13.1706 34.1739,17.1639 32.1975,21.9186 C28.1475,31.5819 24.2433,39.4389 24.2433,41.4882 C24.2433,41.8122 24.3567,41.9904 24.5592,42.0147 L24.5592,42.0147 C26.1792,42.0147 39.3255,23.0364 39.3255,23.0364 C39.3255,23.0364 49.9689,2.187 53.4033,0.3402 C53.7426855,0.137575419 54.1263766,0.0207998796 54.5211,0 C55.2096,0 55.6389,0.4779 55.6389,1.5066 C55.6389,4.1715 52.65,10.53 42.606,21.6189 C42.606,21.6189 29.8242,41.0589 29.8242,50.7789 C29.8242,51.03 29.8242,51.2811 29.8242,51.5322 C29.8242,51.5322 30.0024,53.379 31.1202,53.5167 C30.4055317,53.859369 29.6340628,54.0680225 28.8441,54.1323 C28.2285,54.1323 27.7263,53.9217 27.6372,53.217 C27.5633333,52.7210563 27.5308213,52.2198304 27.54,51.7185 C27.54,49.9851 28.0179,47.4417 30.0915,42.3549 C32.8455,35.6562 36.7416,28.5039 36.7416,28.5039 C36.7416,28.5039 25.92,44.4771 22.2345,45.2223 C22.1592741,45.2329364 22.0829259,45.2329364 22.0077,45.2223 C21.3759,45.2223 21.1005,44.631 21.1005,43.6023 C21.1005,39.4956 25.4745,28.5849 28.4553,22.1373 C31.3065,15.9894 32.3109,12.9762 32.3109,11.8422 C32.3109,11.4291 32.1975,11.2671 31.9869,11.2671 C31.1769,11.2671 30.1887,12.2067 26.7948,16.7589 C23.4009,21.3111 0.9072,59.13 0.4293,60.4017 C0.3159,60.7176 0.2268,60.8553 0.162,60.8553 C0.0972,60.8553 0,60.1263 0,59.94 L0,59.94 C0,59.94 22.8339,18.0225 29.484,10.8702 Z M53.2008,2.7702 L53.2008,2.7378 C53.2008,2.5758 53.1117,2.4867 52.9983,2.4867 C52.245,2.4867 49.5315,6.2451 43.8129,18.2088 C43.8129,18.2088 53.2008,4.2363 53.2008,2.7783 L53.2008,2.7702 Z" id="Shape"></path>
                <path d="M42.1929,40.1031 C45.1494,38.3211 47.4093,35.8668 48.519,34.9272 L48.7539,35.0163 C48.7539,35.0163 42.3468,41.7636097 40.4109,41.7636097 C40.3100705,41.7641402 40.2104108,41.7419936 40.1193,41.6988 C40.0198834,41.6048778 39.9691168,41.4704955 39.9816,41.3343 C39.9816,40.3056 41.6016,37.7055 42.9219,35.7939 C42.9219,35.7048 42.8733,35.6319 42.849,35.5671 L42.3063,35.9964 C41.1642,36.936 39.3417,38.3211 38.8395,38.4264 L38.7018,38.4264 C38.3777306,38.4298432 38.0672468,38.2964091 37.846721,38.0589198 C37.6261952,37.8214304 37.516094,37.5019268 37.5435,37.179 L37.5435,37.1304 C37.5435,36.1017 38.637,33.6717 40.2084,33.21 C40.4222648,33.1517469 40.6428454,33.1217915 40.8645,33.1209 C41.15015,33.1210776 41.4302915,33.1995172 41.6745,33.3477 L41.6745,33.3477 C42.2075489,33.7901008 42.5897174,34.387416 42.768,35.0568 C43.2297,34.7166 43.659,34.3764 44.0478,34.0767 C44.2989,33.7365 44.4528,33.5097 44.4528,33.5097 C44.6064084,33.1957868 44.9143988,32.9863533 45.2628,32.9589 C45.6759,32.9589 45.9675,33.3963 45.9675,33.939 L45.9675,34.101 C45.9675,34.101 42.7599,38.5722 42.1929,40.1031 Z M41.8932,34.5384 C41.5014488,34.5523595 41.1350183,34.7355748 40.8888,35.0406 C40.3429124,35.5845879 39.9635645,36.2730341 39.7953,37.0251 C39.7953,37.1142 39.7953,37.1628 39.8682,37.1871 L39.8682,37.1871 C40.8643209,36.6084039 41.8027959,35.9357398 42.6708,35.1783 C42.5737902,34.9121313 42.3800055,34.6923159 42.1281,34.5627 C42.0514076,34.5431681 41.9722667,34.5349811 41.8932,34.5384 L41.8932,34.5384 Z M43.3269,35.1783 L42.93,35.478 C42.9430801,35.5382072 42.9593022,35.5976885 42.9786,35.6562 C43.1033505,35.503388 43.2196251,35.3438484 43.3269,35.1783 Z" id="Shape"></path>
                <path d="M49.7097,31.833 C49.7844302,31.7845803 49.8717589,31.7592268 49.9608,31.7600782 C50.5169544,31.8134315 51.0109815,32.1377316 51.2811,32.6268 L51.2811,32.6268 C51.2811,32.9427 49.7826,34.6275 49.7826,34.7247 C49.7826,34.8219 50.9166,33.696 51.7428,33.1938 C52.0702781,32.9845657 52.4479197,32.8670772 52.8363,32.8536 C53.1723613,32.8806826 53.5026033,32.9571022 53.8164,33.0804 C54.1323,33.1938 54.2457,33.3072 54.4968,33.3072 C54.6363916,33.3001481 54.7748538,33.2784285 54.9099,33.2424 C55.0270771,33.2000316 55.149941,33.1754588 55.2744,33.1695 C55.4349088,33.1537815 55.5935901,33.2136613 55.7037,33.3315 C55.6446938,33.3218275 55.5845062,33.3218275 55.5255,33.3315 C55.2870604,33.3356794 55.0522866,33.3909202 54.837,33.4935 C54.7295976,33.539373 54.6135455,33.5614782 54.4968,33.5583 C54.108,33.5583 53.6868,33.3801 53.1036,33.3801 C52.8273108,33.3742182 52.5524246,33.4209488 52.2936,33.5178 C51.1353,33.9228 48.3489,37.341 47.871,37.6812 C47.6329497,37.8455958 47.3502976,37.9332179 47.061,37.9323 C46.7282059,37.9704532 46.4062579,37.7998208 46.251,37.503 C46.2393558,37.4360022 46.2393558,37.3674978 46.251,37.3005 C46.251,36.5715 47.3202,34.9272 47.871,34.1577 C48.3530468,33.2877289 48.9741463,32.5024622 49.7097,31.833 Z" id="Path"></path>
                <path d="M62.5887,25.4259 C62.8311216,25.4422821 63.0653334,25.5203527 63.2691,25.6527 C63.7062813,25.9853988 63.9709293,26.4968532 63.99,27.0459 L63.99,27.135 C63.9500774,27.0878853 63.8894024,27.0636152 63.828,27.0702 C63.34654,27.1658566 62.912176,27.4230459 62.5968,27.7992 C61.7868,28.5282 57.7368,34.3845 57.7368,34.3845 C58.4188485,33.7372605 59.2903663,33.3256315 60.2235,33.21 C60.6528,33.21 60.9282,33.372 60.9282,33.7365 L60.9282,33.8013 C60.8391,34.7814 57.7368,35.9235 57.7368,36.288 C57.7368,36.4905 57.9393,36.5877 58.2633,36.5877 C58.6089075,36.5762931 58.9517476,36.521874 59.2839,36.4257 C60.5044702,35.9761695 61.6925884,35.4430048 62.8398,34.83 L63.0018,34.9434 C63.0018,34.9434 58.9518,37.3086 57.51,37.3086 C57.3817707,37.3231845 57.252541,37.291595 57.1455,37.2195 C56.9203506,37.0546399 56.7854431,36.7938186 56.781,36.5148 C56.8024242,36.1903915 56.9209624,35.8799343 57.1212,35.6238 C58.3281,35.1945 58.9194,34.506 58.9194,34.1901 C58.9194,34.0767 58.9194,34.0281 58.7412,34.0281 C58.646817,34.0217246 58.5522998,34.0384041 58.4658,34.0767 C57.5343,34.4169 55.2258,37.8837 54.5211,38.1996 C54.4212075,38.2421546 54.3137788,38.2641912 54.2052,38.2644 C53.7516,38.2644 53.5653,37.746 53.4762,37.4544 L53.4762,37.4544 C53.4762,37.0251 56.4813,32.805 57.2832,31.8492 C58.0851,30.8934 58.4658,29.9133 58.9032,29.4192 C59.302999,29.1196799 59.6529202,28.7588237 59.94,28.35 C60.2559,27.8235 61.8273,25.7094 61.8273,25.7094 C62.048229,25.5430476 62.3127742,25.4445468 62.5887,25.4259 L62.5887,25.4259 Z" id="Path"></path>
                <path d="M79.3233,34.3116 C79.3249545,33.715332 79.2624956,33.1206143 79.137,32.5377 L75.33,32.8779 L76.7637,31.7844 L78.9264,31.5333 C76.95,25.1991 68.8905,22.4451 68.8905,19.44 C68.8905,18.0063 70.7535,16.5483 76.1076,14.58 C84.2643,11.6154 98.1234,10.773 110.0385,10.773 C120.6981,10.773 129.8106,11.4615 131.7951,11.8503 C131.7951,11.8503 132.5241,12.0285 132.5241,12.6603 C132.512106,12.8090008 132.473705,12.9543738 132.4107,13.0896 C131.886014,14.1115782 130.867157,14.7867241 129.7215,14.8716 C129.200411,14.8720214 128.694728,14.6948897 128.2878,14.3694 C126.5301,13.0248 117.0288,13.203 100.9665,12.8223 C100.3104,12.8223 99.6462,12.8223 98.982,12.8223 C83.7864,12.8223 71.1018,16.9614 70.0731,18.8811 C70.0114551,19.0012467 69.9808265,19.134899 69.984,19.2699 C69.984,21.5217 77.9544,25.7499 79.461,31.4199 L83.7216,30.942 C87.5286,25.8633 91.2384,21.1248 92.2671,19.7802 C94.2678,17.1396 94.4055,16.2972 94.4055,16.1109 L94.4055,16.0704 C94.4055,16.0704 97.4835,17.091 97.4835,18.0306 C97.4944929,18.0758418 97.4944929,18.1230582 97.4835,18.1683 C97.1838,19.1403 92.7207,24.1785 87.9579,30.4884 C93.8142,29.8323 98.6013,29.2329 101.1042,29.079 L101.331,29.079 C102.384,29.079 102.6351,29.6055 102.6351,30.0996 C102.632444,30.3827926 102.560116,30.660977 102.4245,30.9096 C102.415899,30.8777708 102.415899,30.8442292 102.4245,30.8124 C102.43447,30.7752575 102.43447,30.7361425 102.4245,30.699 C102.4245,30.2697 101.6145,29.889 100.2375,29.889 C99.8936778,29.8919069 99.5502692,29.913539 99.2088,29.9538 C97.1352,30.1806 93.312,30.7638 87.3423,31.2984 C82.377,37.8837 76.2453,44.5824 75.7917,45.8784 C75.7800399,45.9235595 75.7800399,45.9709405 75.7917,46.0161 C75.7917,46.4049 76.5207,46.656 77.841,46.656 C80.271,46.656 84.564,45.846 89.9181,43.7805 C95.1555292,41.7220981 99.9791974,38.7368018 104.1579,34.9677 L104.4576,35.4456 C99.63,42.12 86.4756,47.79 80.8461,48.6891 C79.9288056,48.8515044 78.9993483,48.9355079 78.0678,48.9402 C74.8764,48.9402 74.196,47.547 73.9692,45.7002 L73.9692,45.684 C73.9692,44.388 78.2946,38.232 82.782,32.2137 L79.6635,32.4891 C79.7374558,32.9416813 79.7753748,33.3994185 79.7769,33.858 C79.7721976,36.1094828 78.8018364,38.2507661 77.112,39.7386 C78.5545276,38.3043077 79.3526214,36.3456159 79.3233,34.3116 Z" id="Path"></path>
                <path d="M106.5393,34.5384 C105.9966,34.8381 104.7411,36.3609 104.7411,36.9117 C104.73583,36.9895157 104.781776,37.0617168 104.8545,37.0899 C104.8545,37.0899 104.9031,37.0899 104.9193,37.0899 C105.6483,37.0899 108.8397,34.8624 108.8397,34.8624 L109.0503,34.8624 C109.0503,34.8624 105.7212,37.503 104.652,37.5516 L104.5791,37.5516 C104.264115,37.58119 103.951215,37.4768912 103.716979,37.26423 C103.482744,37.0515688 103.348789,36.7501704 103.3479,36.4338 C103.393516,35.9241697 103.594228,35.4407626 103.923,35.0487 C104.506145,34.0890758 105.497409,33.4501286 106.6122,33.3153 C106.872742,33.2867333 107.132779,33.3732806 107.324236,33.552285 C107.515693,33.7312894 107.619507,33.9849276 107.6085,34.2468 C107.627222,34.3757238 107.627222,34.5066762 107.6085,34.6356 C107.541177,34.914574 107.278492,35.1012185 106.9929,35.073 C106.883045,35.0735412 106.773762,35.0571488 106.6689,35.0244 C106.893329,34.9527315 107.054961,34.7562375 107.082,34.5222 C107.077095,34.4611683 107.063456,34.4011565 107.0415,34.344 L106.92,34.344 C106.780621,34.3807329 106.650781,34.4470342 106.5393,34.5384 Z" id="Path"></path>
                <path d="M111.7152,36.2961 C111.0348,37.1061 110.2815,38.0538 109.2852,38.0538 L109.0584,38.0538 C108.391867,37.9539125 107.915068,37.3570312 107.9649,36.6849 C108.005992,35.9846871 108.250944,35.311773 108.6696,34.749 C109.8765,32.9022 111.0996,32.4243 112.1364,32.319 L112.2012,32.319 C112.9302,32.319 113.2056,32.9346 113.2056,33.5097 C113.199028,33.6936458 113.169088,33.876009 113.1165,34.0524 L113.1165,34.1253 C113.423522,34.2665403 113.758743,34.335801 114.0966,34.3278 C114.490984,34.3220331 114.881952,34.2536821 115.2549,34.1253 L115.3926,34.1253 C114.948018,34.4044011 114.435183,34.5557294 113.9103,34.5627 C113.583217,34.5573539 113.259648,34.4942854 112.9545,34.3764 C112.7763,34.6275 112.6143,34.6275 112.6143,34.6275 C112.468084,35.2536698 112.15775,35.829605 111.7152,36.2961 Z M111.9663,34.9758 C112.001278,34.9112986 112.018077,34.8385064 112.0149,34.7652 C112.0149,34.6761 111.9663,34.6275 111.9015,34.6275 C111.526097,34.7231686 111.189435,34.9325212 110.9376,35.2269 C110.602519,35.6332078 110.376691,36.1183194 110.2815,36.6363 C110.2815,36.6363 111.78,35.5914 111.9663,34.9758 Z" id="Shape"></path>
            </g>
        </g>
    </g>
</svg>